<?xml version="1.0" encoding="UTF-8"?>
<!DOCTYPE svg PUBLIC "-//W3C//DTD SVG 1.1//EN" "http://www.w3.org/Graphics/SVG/1.1/DTD/svg11.dtd">
<svg xmlns="http://www.w3.org/2000/svg" version="1.1" width="500px" height="500px" style="shape-rendering:geometricPrecision; text-rendering:geometricPrecision; image-rendering:optimizeQuality; fill-rule:evenodd; clip-rule:evenodd" xmlns:xlink="http://www.w3.org/1999/xlink">
<g><path style="opacity:0.006" fill="#fefefe" d="M 5.5,-0.5 C 9.5,-0.5 13.5,-0.5 17.5,-0.5C 39.8333,0.833333 62.1667,0.833333 84.5,-0.5C 221.167,-0.5 357.833,-0.5 494.5,-0.5C 495.079,1.86712 496.412,3.70045 498.5,5C 497.015,6.75649 497.348,7.92315 499.5,8.5C 499.5,65.5 499.5,122.5 499.5,179.5C 498.379,177.046 497.546,174.379 497,171.5C 494.513,182.935 492.846,194.602 492,206.5C 491.667,207.833 491.333,209.167 491,210.5C 490.333,211.833 489.667,211.833 489,210.5C 488.368,204.845 487.868,199.178 487.5,193.5C 489.917,143.152 489.417,92.8186 486,42.5C 485,41.1667 484,41.1667 483,42.5C 482.305,59.0084 482.472,75.5084 483.5,92C 482.888,103.516 482.054,115.016 481,126.5C 480,130.5 479,130.5 478,126.5C 477.459,118.965 476.626,111.465 475.5,104C 476.819,96.8085 476.652,89.6419 475,82.5C 472.545,91.9104 469.878,101.244 467,110.5C 466.667,104.167 466.333,97.8333 466,91.5C 465.667,91.8333 465.333,92.1667 465,92.5C 462.366,98.9559 460.366,105.623 459,112.5C 457.442,111.655 456.442,112.321 456,114.5C 455.408,118.276 454.408,121.943 453,125.5C 450.637,115.672 449.303,105.672 449,95.5C 445.65,94.5745 442.484,93.2411 439.5,91.5C 437.272,92.2186 435.439,93.552 434,95.5C 429.157,107.017 421.99,116.85 412.5,125C 407.171,128.667 401.504,129.334 395.5,127C 388.609,123.258 381.276,120.925 373.5,120C 362.473,119.79 351.473,119.29 340.5,118.5C 337.855,119.108 335.188,119.608 332.5,120C 330.673,120.899 329.34,122.233 328.5,124C 331.009,127.853 332.842,132.019 334,136.5C 335.508,148.196 337.175,159.863 339,171.5C 347.141,187.641 359.308,199.808 375.5,208C 379.605,211.194 383.272,214.86 386.5,219C 393.707,223.103 401.041,226.937 408.5,230.5C 407.617,231.548 406.95,232.715 406.5,234C 408.232,235.695 410.232,237.028 412.5,238C 408.833,239 405.167,240 401.5,241C 403.577,241.192 405.577,241.692 407.5,242.5C 405.263,243.132 403.597,244.465 402.5,246.5C 401.009,247.244 399.509,247.91 398,248.5C 391.01,246.575 385.843,248.909 382.5,255.5C 374.637,256.903 368.304,254.403 363.5,248C 356.061,246.146 348.894,246.98 342,250.5C 334.76,249.121 327.427,248.121 320,247.5C 309.464,248.648 298.964,248.648 288.5,247.5C 287.5,248.5 286.5,249.5 285.5,250.5C 286.347,252.061 286.014,253.561 284.5,255C 286.394,256.101 287.061,257.434 286.5,259C 290.537,261.818 294.87,262.151 299.5,260C 300.833,259.333 300.833,258.667 299.5,258C 301.366,257.015 303.366,256.515 305.5,256.5C 309.793,257.311 313.793,258.811 317.5,261C 315.392,261.36 313.392,262.027 311.5,263C 312.609,263.638 313.775,264.138 315,264.5C 321.825,263.277 328.658,263.277 335.5,264.5C 335.389,265.117 335.056,265.617 334.5,266C 326.784,266.8 319.117,266.633 311.5,265.5C 309.189,266.214 307.022,267.214 305,268.5C 304.821,279.41 304.321,290.243 303.5,301C 295.698,301.24 288.032,301.907 280.5,303C 273.004,301.339 268.17,296.839 266,289.5C 265.187,291.436 264.687,293.436 264.5,295.5C 265.239,295.369 265.906,295.536 266.5,296C 265.099,298.531 263.433,300.864 261.5,303C 252.713,307.008 243.713,307.508 234.5,304.5C 240.807,303.669 247.141,303.169 253.5,303C 255.246,302.529 256.913,301.862 258.5,301C 248.545,301.395 238.545,301.561 228.5,301.5C 228.5,284.5 228.5,267.5 228.5,250.5C 212.183,250.564 205.849,242.564 209.5,226.5C 208.207,227.842 207.374,229.509 207,231.5C 206.772,235.917 206.272,240.25 205.5,244.5C 202.052,244.146 199.052,242.813 196.5,240.5C 190.404,245.626 184.071,245.792 177.5,241C 162.186,239.569 146.853,239.569 131.5,241C 124.425,244.038 117.091,246.204 109.5,247.5C 106.227,246.415 102.894,246.248 99.5,247C 97.0677,250.022 97.0677,253.189 99.5,256.5C 104.9,256.794 109.9,258.294 114.5,261C 112.715,262.163 110.715,262.83 108.5,263C 109.833,263.333 111.167,263.667 112.5,264C 110.699,264.317 110.366,264.984 111.5,266C 114.246,267.243 116.912,268.243 119.5,269C 116.683,266.437 117.183,264.604 121,263.5C 122.072,251.099 128.906,244.933 141.5,245C 150.916,244.625 160.25,245.292 169.5,247C 171.587,247.792 173.421,248.959 175,250.5C 175.452,253.149 176.286,255.649 177.5,258C 182.08,259.383 186.747,260.383 191.5,261C 190.5,261.333 189.5,261.667 188.5,262C 188.833,262.333 189.167,262.667 189.5,263C 192.418,263.716 195.085,263.216 197.5,261.5C 199.274,261.887 200.941,262.553 202.5,263.5C 203.386,262.675 203.719,261.675 203.5,260.5C 206.545,260.342 209.379,261.009 212,262.5C 211.277,268.07 213.11,272.737 217.5,276.5C 218.528,274.639 220.028,273.305 222,272.5C 222.998,267.544 223.831,262.544 224.5,257.5C 225.192,258.025 225.692,258.692 226,259.5C 226.282,270.845 226.782,282.179 227.5,293.5C 225.791,297.605 226.457,301.105 229.5,304C 227.655,305.128 225.655,305.628 223.5,305.5C 223.5,306.5 223.5,307.5 223.5,308.5C 230.541,309.72 237.541,309.386 244.5,307.5C 248.482,308.486 252.482,309.486 256.5,310.5C 259.833,308.833 263.167,307.167 266.5,305.5C 271.692,308.557 277.359,310.557 283.5,311.5C 297.479,309.328 311.479,309.328 325.5,311.5C 329.51,310.259 333.51,310.259 337.5,311.5C 340.35,310.897 343.184,310.23 346,309.5C 349.688,310.943 353.522,311.61 357.5,311.5C 364.5,311 371.5,310.5 378.5,310C 379.966,309.365 381.3,308.531 382.5,307.5C 385.531,309.016 388.531,310.516 391.5,312C 399.248,312.732 406.915,312.232 414.5,310.5C 416.167,310.833 417.833,311.167 419.5,311.5C 421.156,315.127 422.489,318.793 423.5,322.5C 422.65,330.882 421.316,331.216 419.5,323.5C 417.972,322.139 416.305,320.972 414.5,320C 407.428,320.374 400.262,320.874 393,321.5C 390.333,320.167 387.667,318.833 385,317.5C 384.167,317.667 383.333,317.833 382.5,318C 381.167,318.667 381.167,319.333 382.5,320C 379.185,320.011 376.019,319.178 373,317.5C 370.447,318.223 368.28,319.556 366.5,321.5C 363.933,321.222 361.267,321.056 358.5,321C 356.261,318.386 353.595,317.886 350.5,319.5C 349.784,321.482 348.617,323.149 347,324.5C 345.38,322.274 343.214,320.94 340.5,320.5C 333.791,320.812 327.125,320.812 320.5,320.5C 316.918,322.742 313.418,322.742 310,320.5C 306.087,321.314 302.254,322.314 298.5,323.5C 296.966,321.631 294.966,320.298 292.5,319.5C 291.739,318.609 290.739,317.942 289.5,317.5C 284.68,318.808 279.846,318.808 275,317.5C 272.21,318.094 269.71,319.261 267.5,321C 263.167,321.333 258.833,321.667 254.5,322C 252.051,323.863 251.051,326.363 251.5,329.5C 251.67,331.715 252.337,333.715 253.5,335.5C 252.355,336.891 252.355,338.224 253.5,339.5C 255.273,337.628 257.273,337.795 259.5,340C 255.576,340.799 255.576,341.299 259.5,341.5C 262.808,341.617 263.141,340.95 260.5,339.5C 262.167,338.167 263.833,338.167 265.5,339.5C 262.972,340.517 262.972,341.684 265.5,343C 263.5,343.333 261.5,343.667 259.5,344C 259.833,345.667 260.167,347.333 260.5,349C 272.886,349.803 285.22,349.303 297.5,347.5C 312.386,349.455 327.22,349.455 342,347.5C 356.936,347.908 371.936,348.575 387,349.5C 394.185,348.002 401.185,348.668 408,351.5C 409.144,351.089 410.311,350.756 411.5,350.5C 414.389,351.389 417.055,352.722 419.5,354.5C 420.736,353.754 422.07,353.421 423.5,353.5C 424.549,357.831 422.882,359.997 418.5,360C 402.838,361.063 387.171,362.063 371.5,363C 369.122,363.511 366.788,364.178 364.5,365C 362.82,365.347 361.82,366.347 361.5,368C 364.73,370.419 368.396,372.086 372.5,373C 382.586,374.864 392.586,377.031 402.5,379.5C 409.383,379.39 415.383,377.057 420.5,372.5C 422.833,373.667 425.167,374.833 427.5,376C 434.724,382.525 442.224,388.692 450,394.5C 459.451,416.99 462.451,440.323 459,464.5C 458.108,467.284 456.942,469.95 455.5,472.5C 456.04,473.748 456.707,474.915 457.5,476C 461.382,477.536 465.382,478.203 469.5,478C 471.986,474.181 474.32,470.348 476.5,466.5C 478.006,471.2 480.173,475.534 483,479.5C 485.864,473.176 487.198,466.509 487,459.5C 487.333,439.167 487.667,418.833 488,398.5C 489.969,390.978 490.969,383.311 491,375.5C 491.333,374.5 491.667,373.5 492,372.5C 492.6,391.502 493.267,410.502 494,429.5C 495.395,430.815 496.395,430.481 497,428.5C 497.714,419.335 498.547,410.335 499.5,401.5C 499.5,433.833 499.5,466.167 499.5,498.5C 496.222,497.609 492.889,496.776 489.5,496C 490.665,494.916 491.998,494.083 493.5,493.5C 494.429,492.311 494.762,490.978 494.5,489.5C 490.719,488.363 486.885,487.363 483,486.5C 475.859,489.879 469.359,489.045 463.5,484C 439.825,484.985 416.159,484.652 392.5,483C 388.681,482.173 385.681,480.173 383.5,477C 359.283,475.658 335.283,477.324 311.5,482C 268.802,483.415 226.135,485.415 183.5,488C 155.596,489.135 127.763,488.301 100,485.5C 74.8509,486.508 49.6842,487.341 24.5,488C 28.1667,489 31.8333,490 35.5,491C 29.2511,491.809 23.0844,491.642 17,490.5C 18.0776,485.338 19.0776,480.004 20,474.5C 21.8271,416.299 21.3271,358.132 18.5,300C 18.5573,278.743 19.8906,257.576 22.5,236.5C 20.2035,221.598 19.0369,206.598 19,191.5C 18.4951,185.423 16.8284,179.757 14,174.5C 13.0826,130.982 13.5826,87.4819 15.5,44C 15.5056,38.7777 15.0056,33.6111 14,28.5C 13.6322,27.09 12.7989,26.09 11.5,25.5C 9.94776,49.4708 8.94776,73.4708 8.5,97.5C 9.56532,127.828 9.73199,158.161 9,188.5C 8.66667,189.167 8.33333,189.833 8,190.5C 6.63016,165.856 5.63016,141.189 5,116.5C 4.70829,80.6336 4.54162,44.8003 4.5,9C 4.85131,6.80712 5.85131,4.97379 7.5,3.5C 6.14682,2.4763 5.48015,1.14297 5.5,-0.5 Z M 489.5,2.5 C 492.88,2.17939 493.713,3.17939 492,5.5C 490.933,4.80945 489.766,4.30945 488.5,4C 489.056,3.61742 489.389,3.11742 489.5,2.5 Z M 24.5,14.5 C 29.3236,13.9711 33.6569,15.1378 37.5,18C 32.9953,19.7492 28.9953,22.2492 25.5,25.5C 24.5672,29.4295 24.2338,33.4295 24.5,37.5C 23.1779,37.33 22.0113,37.6634 21,38.5C 20.1667,36 19.3333,33.5 18.5,31C 20.0855,26.6698 20.9188,22.1698 21,17.5C 22.1451,16.3636 23.3117,15.3636 24.5,14.5 Z M 438.5,17.5 C 447.719,17.8857 447.719,18.8857 438.5,20.5C 437.5,20 436.5,19.5 435.5,19C 436.737,18.7679 437.737,18.2679 438.5,17.5 Z M 407.5,19.5 C 414.011,18.1819 420.678,18.1819 427.5,19.5C 426.975,20.1924 426.308,20.6924 425.5,21C 419.319,21.9639 413.319,21.4639 407.5,19.5 Z M 478.5,65.5 C 479.161,67.134 479.494,68.9674 479.5,71C 479.636,74.0524 478.969,76.8858 477.5,79.5C 477.167,79.1667 476.833,78.8333 476.5,78.5C 477.538,74.2314 478.205,69.898 478.5,65.5 Z M 233.5,133.5 C 245.279,135.575 245.279,136.742 233.5,137C 230.554,137.806 227.888,139.139 225.5,141C 214.323,152.843 202.49,164.009 190,174.5C 180.443,187.613 175.443,202.28 175,218.5C 173.341,211.896 172.008,205.23 171,198.5C 169.037,196.239 167.87,193.572 167.5,190.5C 168.35,180.446 171.85,171.446 178,163.5C 183.468,159.033 188.635,154.2 193.5,149C 201.204,146.434 208.538,143.101 215.5,139C 221.632,137.231 227.632,135.397 233.5,133.5 Z M 107.5,135.5 C 108.601,134.402 109.934,134.235 111.5,135C 117.647,136.567 121.98,140.233 124.5,146C 121.898,153.595 117.398,159.762 111,164.5C 106.999,163.505 104.833,161.005 104.5,157C 106.137,152.714 107.804,148.38 109.5,144C 109.828,141.068 109.161,138.235 107.5,135.5 Z M 249.5,160.5 C 241.721,156.554 235.721,158.388 231.5,166C 226.705,176.367 227.705,186.034 234.5,195C 242.959,196.186 248.459,192.686 251,184.5C 251.248,190.576 253.081,196.076 256.5,201C 258.519,201.45 260.352,202.283 262,203.5C 266.541,202.117 270.041,199.45 272.5,195.5C 269.55,202.388 268.884,209.554 270.5,217C 273.278,223.298 277.945,225.131 284.5,222.5C 282.59,224.562 280.257,226.062 277.5,227C 278.731,228.183 278.731,229.349 277.5,230.5C 274.523,225.689 270.689,221.689 266,218.5C 254.037,193.872 240.203,192.539 224.5,214.5C 220.858,217.817 216.858,220.484 212.5,222.5C 214.379,218.894 217.046,216.061 220.5,214C 217.405,213.687 214.405,214.187 211.5,215.5C 208.972,214.502 208.972,213.669 211.5,213C 206.389,207.591 204.056,201.091 204.5,193.5C 203.334,183.46 207.668,177.793 217.5,176.5C 219.059,177.074 220.559,177.74 222,178.5C 225.521,172.927 228.855,167.26 232,161.5C 236.772,156.932 242.272,155.765 248.5,158C 249.252,158.671 249.586,159.504 249.5,160.5 Z M 249.5,160.5 C 251.044,160.703 252.378,161.37 253.5,162.5C 254.086,162.291 254.586,161.957 255,161.5C 255.18,163.488 255.014,165.488 254.5,167.5C 253.5,167.5 252.5,167.5 251.5,167.5C 251.606,164.921 250.939,162.588 249.5,160.5 Z M 210.5,161.5 C 211.833,161.5 213.167,161.5 214.5,161.5C 214.703,163.39 214.037,164.89 212.5,166C 210.541,166.931 208.541,167.764 206.5,168.5C 205.479,167.998 205.312,167.332 206,166.5C 207.366,164.638 208.866,162.972 210.5,161.5 Z M 272.5,195.5 C 276.168,187.236 276.335,178.903 273,170.5C 268.361,166.738 263.528,166.571 258.5,170C 256.934,172.326 255.268,174.492 253.5,176.5C 253.125,173.603 253.625,170.937 255,168.5C 255.333,168.833 255.667,169.167 256,169.5C 256.5,168.333 257.333,167.5 258.5,167C 260.833,166.667 263.167,166.333 265.5,166C 263.392,165.64 261.392,164.973 259.5,164C 263.496,162.486 267.496,161.986 271.5,162.5C 269.833,163.167 268.167,163.833 266.5,164.5C 269.646,166.164 272.646,167.33 275.5,168C 274.833,168.333 274.167,168.667 273.5,169C 278.581,173.225 280.748,178.725 280,185.5C 280.333,185.167 280.667,184.833 281,184.5C 282.119,185.552 282.619,186.719 282.5,188C 288.761,189.128 293.094,192.628 295.5,198.5C 293.848,201.918 293.015,205.585 293,209.5C 293.753,202.446 291.92,196.28 287.5,191C 283.698,189.143 280.032,189.476 276.5,192C 275.616,193.72 274.283,194.886 272.5,195.5 Z M 313.5,220.5 C 313.666,216.154 313.499,211.821 313,207.5C 309.596,203.497 308.929,199.164 311,194.5C 314.521,201.147 316.688,208.147 317.5,215.5C 316.867,217.786 315.534,219.452 313.5,220.5 Z M 27.5,203.5 C 29.337,203.639 29.6704,204.306 28.5,205.5C 27.7025,205.043 27.3691,204.376 27.5,203.5 Z M 290.5,214.5 C 290.5,215.5 290.5,216.5 290.5,217.5C 289.167,218.5 287.833,219.5 286.5,220.5C 287.449,218.223 288.782,216.223 290.5,214.5 Z M 286.5,220.5 C 286.167,221.5 285.5,222.167 284.5,222.5C 284.5,221.167 285.167,220.5 286.5,220.5 Z M 290.5,220.5 C 290.833,221.833 291.167,221.833 291.5,220.5C 292.167,220.5 292.833,220.5 293.5,220.5C 293.719,221.675 293.386,222.675 292.5,223.5C 284.149,227.799 283.482,226.799 290.5,220.5 Z M 211.5,223.5 C 211.715,225.179 211.048,226.179 209.5,226.5C 209.427,224.973 210.094,223.973 211.5,223.5 Z M 117.5,227.5 C 120.518,227.335 123.518,227.502 126.5,228C 127.167,229 127.833,230 128.5,231C 119.84,232.87 111.173,234.703 102.5,236.5C 102.5,235.167 102.5,233.833 102.5,232.5C 105.187,232.664 107.854,232.497 110.5,232C 112.76,230.212 115.093,228.712 117.5,227.5 Z M 324.5,230.5 C 327.179,231.226 329.846,232.059 332.5,233C 333.218,234.987 334.218,236.821 335.5,238.5C 331.649,239.749 327.982,239.249 324.5,237C 324.216,235.044 324.216,232.877 324.5,230.5 Z M 58.5,232.5 C 65.6545,232.089 72.6545,232.922 79.5,235C 82.7262,236.106 85.3929,237.939 87.5,240.5C 86.5,240.833 85.5,241.167 84.5,241.5C 80.183,240.868 75.8497,240.368 71.5,240C 65.2341,235.434 58.7341,234.934 52,238.5C 50.2785,238.389 50.1118,237.889 51.5,237C 53.8981,235.476 56.2314,233.976 58.5,232.5 Z M 78.5,246.5 C 75.2515,246.584 72.2515,245.751 69.5,244C 71.6797,243.581 73.8463,243.748 76,244.5C 77.3756,244.684 78.2089,245.351 78.5,246.5 Z M 78.5,246.5 C 81.0728,246.148 83.4062,246.648 85.5,248C 84.1813,249.628 82.8479,249.461 81.5,247.5C 81.1667,247.833 80.8333,248.167 80.5,248.5C 81.2427,249.182 81.9094,249.849 82.5,250.5C 78.3261,249.099 73.9928,248.266 69.5,248C 72.6946,247.819 75.6946,247.319 78.5,246.5 Z M 260.5,254.5 C 258.157,251.67 255.157,249.837 251.5,249C 246.167,248.667 240.833,248.333 235.5,248C 240.11,246.71 244.777,246.376 249.5,247C 255.046,248.594 260.546,250.094 266,251.5C 268.684,250.932 271.184,249.932 273.5,248.5C 273.762,250.132 272.762,251.299 270.5,252C 266.689,251.917 263.355,252.75 260.5,254.5 Z M 279.5,248.5 C 279.842,249.338 280.508,249.672 281.5,249.5C 280.857,252.783 279.19,255.449 276.5,257.5C 275.033,258.695 273.533,258.695 272,257.5C 270.743,257.15 270.409,256.483 271,255.5C 272.067,254.809 273.234,254.309 274.5,254C 275.377,251.388 277.043,249.555 279.5,248.5 Z M 142.5,256.5 C 137.833,256.5 133.167,256.5 128.5,256.5C 128.073,260.004 128.073,263.671 128.5,267.5C 127.127,267.657 125.793,267.49 124.5,267C 125.428,266.612 126.095,265.945 126.5,265C 124.43,259.707 126.097,256.207 131.5,254.5C 132.002,253.284 132.335,252.117 132.5,251C 134.788,251.053 137.121,251.386 139.5,252C 138.833,252.333 138.167,252.667 137.5,253C 139.431,253.902 141.097,255.069 142.5,256.5 Z M 53.5,304.5 C 50.9113,303.69 49.578,301.856 49.5,299C 50.3776,288.354 50.3776,277.687 49.5,267C 49.3574,261.995 49.8574,257.161 51,252.5C 51.3333,268.5 51.6667,284.5 52,300.5C 57.0191,301.428 61.8524,301.761 66.5,301.5C 65.9747,302.192 65.3081,302.692 64.5,303C 60.7858,303.32 57.1191,303.82 53.5,304.5 Z M 86.5,255.5 C 86.56,254.957 86.8933,254.624 87.5,254.5C 88.2621,255.628 88.9288,256.795 89.5,258C 89.1667,258.167 88.8333,258.333 88.5,258.5C 87.8243,257.398 87.1577,256.398 86.5,255.5 Z M 165.5,256.5 C 161.154,256.666 156.821,256.499 152.5,256C 156.931,254.613 161.264,254.78 165.5,256.5 Z M 260.5,254.5 C 262.395,255.703 264.395,256.869 266.5,258C 265.233,259.796 265.233,261.629 266.5,263.5C 263.74,266.723 263.906,269.723 267,272.5C 268.777,270.21 270.944,268.543 273.5,267.5C 270.273,270.935 267.773,274.935 266,279.5C 264.356,276.689 262.19,274.356 259.5,272.5C 260.531,271.3 261.365,269.966 262,268.5C 262.218,265.574 262.718,262.74 263.5,260C 262.029,258.417 261.029,256.583 260.5,254.5 Z M 41.5,256.5 C 42.9311,256.881 43.7645,257.881 44,259.5C 44.1757,273.741 44.6757,287.908 45.5,302C 45.1667,302.167 44.8333,302.333 44.5,302.5C 40.9963,298.66 38.9963,294.16 38.5,289C 38.9154,278.082 39.9154,267.248 41.5,256.5 Z M 142.5,256.5 C 146.165,258.374 146.165,259.707 142.5,260.5C 142.5,259.167 142.5,257.833 142.5,256.5 Z M 149.5,257.5 C 150.376,257.369 151.043,257.702 151.5,258.5C 151.258,261.319 151.258,264.319 151.5,267.5C 148.5,267.5 145.5,267.5 142.5,267.5C 141.907,262.281 142.907,261.614 145.5,265.5C 146.689,266.429 148.022,266.762 149.5,266.5C 149.5,263.5 149.5,260.5 149.5,257.5 Z M 89.5,259.5 C 91.4411,260.638 91.6078,262.304 90,264.5C 89.5065,262.866 89.3398,261.199 89.5,259.5 Z M 68.5,261.5 C 75.1479,264.456 75.1479,267.456 68.5,270.5C 67.3861,269.277 67.2195,267.944 68,266.5C 69.073,267.28 70.2396,267.113 71.5,266C 68.7814,265.195 67.7814,263.695 68.5,261.5 Z M 244.5,261.5 C 248.473,263.46 248.473,265.46 244.5,267.5C 243.306,265.484 243.306,263.484 244.5,261.5 Z M 166.5,264.5 C 168.339,265.582 170.339,266.415 172.5,267C 170.167,267.667 167.833,267.667 165.5,267C 166.252,266.329 166.586,265.496 166.5,264.5 Z M 196.5,264.5 C 203.363,266.934 208.697,271.267 212.5,277.5C 212.167,278.5 211.5,279.167 210.5,279.5C 207.939,272.932 203.272,268.932 196.5,267.5C 196.5,266.5 196.5,265.5 196.5,264.5 Z M 296.5,264.5 C 298.767,265.423 301.1,266.256 303.5,267C 298.167,267.667 292.833,267.667 287.5,267C 290.167,266.667 292.833,266.333 295.5,266C 296.056,265.617 296.389,265.117 296.5,264.5 Z M 97.5,267.5 C 100.519,265.663 103.852,265.163 107.5,266C 104.207,266.826 100.874,267.326 97.5,267.5 Z M 181.5,267.5 C 184.519,265.663 187.852,265.163 191.5,266C 188.173,266.61 184.839,267.11 181.5,267.5 Z M 273.5,267.5 C 276.856,265.621 280.523,265.121 284.5,266C 280.855,266.719 277.188,267.219 273.5,267.5 Z M 97.5,267.5 C 96.155,269.836 94.155,271.503 91.5,272.5C 92.865,270.14 94.865,268.473 97.5,267.5 Z M 181.5,267.5 C 180.341,269.25 178.674,270.25 176.5,270.5C 177.659,268.75 179.326,267.75 181.5,267.5 Z M 176.5,270.5 C 175.969,272.544 174.802,274.211 173,275.5C 172.878,273.831 173.212,272.165 174,270.5C 174.77,271.598 175.603,271.598 176.5,270.5 Z M 121.5,271.5 C 123.028,271.517 123.528,272.184 123,273.5C 122.283,272.956 121.783,272.289 121.5,271.5 Z M 91.5,272.5 C 84.9883,287.027 88.9883,297.194 103.5,303C 109.175,303.974 114.342,302.808 119,299.5C 119.167,299.833 119.333,300.167 119.5,300.5C 115.348,303.495 110.681,304.995 105.5,305C 105.833,305.333 106.167,305.667 106.5,306C 104.377,306.815 102.377,307.815 100.5,309C 97.4856,309.128 94.4856,309.128 91.5,309C 88.0901,311.372 84.4234,313.205 80.5,314.5C 81.4525,312.39 83.1192,311.223 85.5,311C 87.1243,309.883 88.1243,308.383 88.5,306.5C 86.6848,302.87 84.8515,299.203 83,295.5C 80.4171,293.302 77.5838,291.469 74.5,290C 77.5716,288.142 80.905,286.976 84.5,286.5C 84.2628,290.41 85.0961,294.077 87,297.5C 88.1096,299.037 89.6096,299.703 91.5,299.5C 86.1707,292.69 85.1707,285.19 88.5,277C 87.1373,274.167 88.1373,272.667 91.5,272.5 Z M 171.5,289.5 C 169.565,288.85 167.565,288.517 165.5,288.5C 165.5,285.5 165.5,282.5 165.5,279.5C 167.792,279.756 169.959,279.423 172,278.5C 171.656,280.258 171.156,282.091 170.5,284C 170.943,285.825 171.277,287.658 171.5,289.5 Z M 167.5,303.5 C 157.249,305.968 157.249,307.968 167.5,309.5C 169.62,307.68 171.954,306.014 174.5,304.5C 176.101,305.035 176.601,306.035 176,307.5C 175.167,308.333 174.333,309.167 173.5,310C 170.16,310.453 166.826,310.953 163.5,311.5C 161.083,310.596 158.583,309.929 156,309.5C 147.431,313.627 138.931,313.461 130.5,309C 127.833,307.667 127.833,306.333 130.5,305C 129.359,304.259 129.359,303.425 130.5,302.5C 128.333,299.531 126.999,296.197 126.5,292.5C 125.692,292.192 125.025,291.692 124.5,291C 125.161,287.467 125.494,283.634 125.5,279.5C 126.5,279.5 127.5,279.5 128.5,279.5C 128.334,285.176 128.501,290.843 129,296.5C 131.02,299.757 133.854,301.924 137.5,303C 141.269,303.199 144.936,302.865 148.5,302C 145.109,303.952 141.442,305.285 137.5,306C 136.185,307.395 136.519,308.395 138.5,309C 140.5,309.667 142.5,309.667 144.5,309C 146.344,307.818 148.177,306.651 150,305.5C 151.789,306.409 153.623,306.576 155.5,306C 155.018,304.992 154.852,303.825 155,302.5C 153.615,301.449 152.615,300.116 152,298.5C 151.667,298.833 151.333,299.167 151,299.5C 150.667,297.5 150.333,295.5 150,293.5C 148.334,294.34 148.167,293.84 149.5,292C 148.833,290.667 147.833,289.667 146.5,289C 147.448,288.517 148.448,288.351 149.5,288.5C 149.663,286.143 149.497,283.81 149,281.5C 147.293,280.862 145.46,280.862 143.5,281.5C 143.472,283.582 144.139,285.416 145.5,287C 144.975,287.692 144.308,288.192 143.5,288.5C 142.516,285.572 142.183,282.572 142.5,279.5C 145.5,279.5 148.5,279.5 151.5,279.5C 151.334,284.844 151.501,290.177 152,295.5C 155.64,301.104 160.807,303.77 167.5,303.5 Z M 188.5,279.5 C 194.989,279.156 196.989,281.99 194.5,288C 191.49,290.222 188.99,289.722 187,286.5C 186.391,283.935 186.891,281.601 188.5,279.5 Z M 283.5,279.5 C 288.283,279.449 290.45,281.782 290,286.5C 283.679,291.204 281.012,289.538 282,281.5C 282.717,280.956 283.217,280.289 283.5,279.5 Z M 78.5,283.5 C 79.0024,281.915 80.0024,281.415 81.5,282C 80.7562,283.039 79.7562,283.539 78.5,283.5 Z M 243.5,281.5 C 248.339,280.677 250.673,282.677 250.5,287.5C 248.139,287.674 245.806,288.007 243.5,288.5C 243.5,286.167 243.5,283.833 243.5,281.5 Z M 74.5,295.5 C 77.1402,296.794 77.1402,298.127 74.5,299.5C 73.3744,298.192 73.3744,296.858 74.5,295.5 Z M 173.5,295.5 C 177.832,299.83 183.166,302.33 189.5,303C 193.179,302.852 196.845,302.352 200.5,301.5C 195.443,303.36 190.443,305.526 185.5,308C 191.259,308.395 196.925,308.061 202.5,307C 203.167,308 203.833,309 204.5,310C 202.807,312.512 200.474,314.012 197.5,314.5C 191.456,312.43 185.456,310.263 179.5,308C 180.603,306.32 180.27,304.82 178.5,303.5C 176.471,304.629 176.137,304.129 177.5,302C 176.789,300.745 175.956,299.579 175,298.5C 174.667,298.833 174.333,299.167 174,299.5C 173.51,298.207 173.343,296.873 173.5,295.5 Z M 264.5,295.5 C 264.167,296.5 263.5,297.167 262.5,297.5C 262.5,296.167 263.167,295.5 264.5,295.5 Z M 167.5,303.5 C 168.659,301.623 170.326,301.123 172.5,302C 170.846,302.608 169.179,303.108 167.5,303.5 Z M 122.5,302.5 C 124.39,302.297 125.89,302.963 127,304.5C 121.61,310.139 114.777,311.973 106.5,310C 112.355,308.34 117.688,305.84 122.5,302.5 Z M 53.5,304.5 C 56.7198,306.744 60.3864,308.077 64.5,308.5C 60.1543,309.01 55.9877,310.01 52,311.5C 50.2201,309.707 48.3868,308.04 46.5,306.5C 48.9259,306.823 51.2592,306.157 53.5,304.5 Z M 101.5,319.5 C 94.885,318.055 90.385,320.389 88,326.5C 87.542,323.904 88.3754,321.737 90.5,320C 92.8658,318.767 95.3658,317.934 98,317.5C 99.6991,317.387 100.866,318.053 101.5,319.5 Z M 179.5,319.5 C 176.635,319.055 174.135,319.722 172,321.5C 168.488,318.638 165.655,319.305 163.5,323.5C 159.418,321.721 155.918,322.388 153,325.5C 149.379,321.853 145.379,321.52 141,324.5C 139.004,322.941 136.671,322.274 134,322.5C 124.506,322.438 115.006,322.771 105.5,323.5C 104.081,322.995 103.415,321.995 103.5,320.5C 115.927,320.931 128.427,321.597 141,322.5C 143.461,321.782 145.961,321.115 148.5,320.5C 152.848,322.035 157.014,321.701 161,319.5C 161.667,320.167 162.333,320.833 163,321.5C 163.615,319.884 164.615,318.551 166,317.5C 169.966,317.47 174.133,317.636 178.5,318C 179.056,318.383 179.389,318.883 179.5,319.5 Z M 239.5,319.5 C 235.749,319.082 233.582,320.749 233,324.5C 228.932,321.675 225.099,322.008 221.5,325.5C 220.713,324.758 220.047,323.925 219.5,323C 216.167,322.333 212.833,322.333 209.5,323C 208.185,328.799 207.185,334.633 206.5,340.5C 208.5,340.5 210.5,340.5 212.5,340.5C 212.33,339.178 212.663,338.011 213.5,337C 216.041,336.619 218.374,335.786 220.5,334.5C 224.501,337.071 228.501,337.071 232.5,334.5C 233.623,335.544 234.956,336.21 236.5,336.5C 241.137,336.532 245.804,336.198 250.5,335.5C 250.423,336.75 249.756,337.583 248.5,338C 245.833,338.167 243.167,338.333 240.5,338.5C 235.44,337.868 230.44,337.868 225.5,338.5C 223.192,338.635 221.192,337.969 219.5,336.5C 215.571,337.947 212.404,340.281 210,343.5C 208.125,341.822 205.958,340.822 203.5,340.5C 203.649,339.448 203.483,338.448 203,337.5C 202.346,338.696 201.846,338.696 201.5,337.5C 203.261,333.063 204.428,328.397 205,323.5C 206.364,324.258 207.531,323.758 208.5,322C 213.008,319.882 217.341,320.049 221.5,322.5C 224.665,321.157 227.832,320.824 231,321.5C 233.379,318.524 236.213,317.858 239.5,319.5 Z M 179.5,319.5 C 181.238,321.426 183.404,321.759 186,320.5C 188.034,320.354 189.701,321.02 191,322.5C 192.57,321.642 194.237,320.975 196,320.5C 198.944,320.388 201.777,320.888 204.5,322C 199.813,322.081 195.313,322.915 191,324.5C 190.5,324 190,323.5 189.5,323C 186.183,322.502 182.85,322.335 179.5,322.5C 179.5,321.5 179.5,320.5 179.5,319.5 Z M 292.5,319.5 C 294.966,320.298 296.966,321.631 298.5,323.5C 295.634,323.367 293.634,322.034 292.5,319.5 Z M 240.5,320.5 C 242.814,321.821 245.147,321.821 247.5,320.5C 249.107,320.637 250.441,321.304 251.5,322.5C 248.374,322.25 245.041,322.584 241.5,323.5C 240.614,322.675 240.281,321.675 240.5,320.5 Z M 96.5,326.5 C 97.7733,327.077 97.7733,327.743 96.5,328.5C 95.537,328.03 95.537,327.363 96.5,326.5 Z M 149.5,336.5 C 149.811,335.522 150.478,334.855 151.5,334.5C 155.5,337.167 159.5,337.167 163.5,334.5C 165.13,335.898 166.964,336.898 169,337.5C 170.458,336.253 171.958,336.253 173.5,337.5C 174.748,336.96 175.915,336.293 177,335.5C 178.085,336.293 179.252,336.96 180.5,337.5C 183.378,336.953 186.211,336.62 189,336.5C 189.318,338.061 190.151,339.228 191.5,340C 194.877,340.369 198.21,340.369 201.5,340C 199.51,341.751 197.177,342.751 194.5,343C 195.167,343.333 195.833,343.667 196.5,344C 193.748,344.212 191.248,345.045 189,346.5C 185.495,344.262 181.662,342.595 177.5,341.5C 174.88,342.522 172.213,342.522 169.5,341.5C 166.927,341.453 164.927,342.453 163.5,344.5C 163.977,345.478 164.643,346.311 165.5,347C 164.5,347.5 163.5,348 162.5,348.5C 152.213,347.69 141.88,347.19 131.5,347C 134.047,346.448 136.047,345.114 137.5,343C 136.5,342.5 135.5,342 134.5,341.5C 131.51,341.946 128.343,341.946 125,341.5C 120.695,341.397 116.528,342.063 112.5,343.5C 111.77,345.006 111.437,346.34 111.5,347.5C 106.984,345.947 102.318,345.113 97.5,345C 96.3595,344.259 96.3595,343.425 97.5,342.5C 96.6667,342.167 95.8333,341.833 95,341.5C 93.0909,342.156 91.2576,342.656 89.5,343C 89,342.5 88.5,342 88,341.5C 87.4899,338.102 87.1565,334.769 87,331.5C 91.0674,336.886 96.0674,337.886 102,334.5C 105.842,337.044 109.675,337.044 113.5,334.5C 114.551,335.885 115.884,336.885 117.5,337.5C 119.5,336.167 121.5,336.167 123.5,337.5C 124.748,336.96 125.915,336.293 127,335.5C 127.739,336.574 128.739,337.241 130,337.5C 132.185,336.242 134.352,336.242 136.5,337.5C 138.258,336.872 139.758,335.872 141,334.5C 143.456,336.321 146.289,336.988 149.5,336.5 Z M 219.5,339.5 C 221.564,339.687 223.564,340.187 225.5,341C 223.044,343.159 223.71,343.992 227.5,343.5C 227.281,342.325 227.614,341.325 228.5,340.5C 233.661,340.459 238.994,340.626 244.5,341C 240.81,341.94 237.143,342.607 233.5,343C 237.821,343.499 242.154,343.666 246.5,343.5C 246.5,342.5 246.5,341.5 246.5,340.5C 248.331,339.948 249.997,339.948 251.5,340.5C 252.739,342.007 252.405,343.174 250.5,344C 251.167,345 251.833,346 252.5,347C 238.854,348.199 225.187,349.032 211.5,349.5C 211.634,344.042 214.3,340.709 219.5,339.5 Z M 204.5,342.5 C 205.837,343.315 206.837,344.482 207.5,346C 204.285,346.274 201.619,347.607 199.5,350C 194.051,350.896 188.718,350.563 183.5,349C 187.469,348.147 191.469,347.481 195.5,347C 198.098,344.472 201.098,342.972 204.5,342.5 Z M 496.5,488.5 C 498.525,490.726 498.691,493.059 497,495.5C 496.503,493.19 496.337,490.857 496.5,488.5 Z"/></g>
<g><path style="opacity:0.004" fill="#fefffe" d="M 0.5,2.5 C 1.67504,2.28099 2.67504,2.61432 3.5,3.5C 1.94835,4.79789 0.948349,4.46455 0.5,2.5 Z"/></g>
<g><path style="opacity:0.004" fill="#fefffe" d="M -0.5,21.5 C 0.232531,65.6695 0.899198,110.003 1.5,154.5C 1.08815,169.005 0.421481,183.338 -0.5,197.5C -0.5,138.833 -0.5,80.1667 -0.5,21.5 Z"/></g>
<g><path style="opacity:0.978" fill="#4256bf" d="M 239.5,160.5 C 247.988,160.837 251.655,165.337 250.5,174C 250.717,181.02 248.383,187.02 243.5,192C 239.176,194.469 235.676,193.636 233,189.5C 228.007,178.018 230.174,168.351 239.5,160.5 Z"/></g>
<g><path style="opacity:0.004" fill="#fefffe" d="M 2.5,164.5 C 3.6517,169.985 3.81837,175.651 3,181.5C 2.50058,175.843 2.33391,170.176 2.5,164.5 Z"/></g>
<g><path style="opacity:0.976" fill="#4256bf" d="M 262.5,169.5 C 270.31,169.645 273.976,173.645 273.5,181.5C 273.177,186.823 271.677,191.823 269,196.5C 265.552,200.791 261.552,201.458 257,198.5C 254.586,192.388 253.919,186.054 255,179.5C 256.803,175.523 259.303,172.189 262.5,169.5 Z"/></g>
<g><path style="opacity:0.066" fill="#f6f6fc" d="M 212.5,178.5 C 214.857,178.337 217.19,178.503 219.5,179C 222.159,181.288 224.826,183.622 227.5,186C 227.043,186.414 226.709,186.914 226.5,187.5C 229.412,194.732 228.912,201.732 225,208.5C 219.005,214.107 213.671,213.44 209,206.5C 206.555,199.762 205.888,192.762 207,185.5C 207.938,182.402 209.772,180.069 212.5,178.5 Z"/></g>
<g><path style="opacity:0.971" fill="#4256bf" d="M 213.5,180.5 C 220.121,180.609 224.287,183.942 226,190.5C 226.928,197.288 225.428,203.455 221.5,209C 217.543,211.385 214.376,210.552 212,206.5C 206.826,197.301 207.326,188.634 213.5,180.5 Z"/></g>
<g><path style="opacity:0.976" fill="#4356bf" d="M 279.5,192.5 C 286.954,191.619 290.621,194.953 290.5,202.5C 289.95,209.093 287.616,214.927 283.5,220C 280.209,222.074 277.043,221.908 274,219.5C 269.221,208.95 271.055,199.95 279.5,192.5 Z"/></g>
<g><path style="opacity:0.004" fill="#fefffe" d="M 246.5,193.5 C 248.028,193.517 248.528,194.184 248,195.5C 244.189,196.966 243.689,196.3 246.5,193.5 Z"/></g>
<g><path style="opacity:0.004" fill="#fefffe" d="M 230.5,195.5 C 233.061,195.447 235.061,196.447 236.5,198.5C 234.579,199.641 232.579,199.808 230.5,199C 229.316,197.855 229.316,196.688 230.5,195.5 Z"/></g>
<g><path style="opacity:0.986" fill="#4155be" d="M 239.5,201.5 C 244.901,200.966 249.901,202.133 254.5,205C 258.371,209.907 261.871,215.074 265,220.5C 267.371,223.206 270.037,225.539 273,227.5C 279.155,234.219 278.988,240.719 272.5,247C 270.256,247.906 267.923,248.406 265.5,248.5C 258.279,246.537 250.946,245.204 243.5,244.5C 236.722,245.194 230.056,246.527 223.5,248.5C 212.196,246.233 208.363,239.566 212,228.5C 221.672,219.995 230.838,210.995 239.5,201.5 Z"/></g>
<g><path style="opacity:0.004" fill="#fefffe" d="M 265.5,203.5 C 266.043,203.56 266.376,203.893 266.5,204.5C 265.635,205.583 264.635,205.749 263.5,205C 264.416,204.722 265.082,204.222 265.5,203.5 Z"/></g>
<g><path style="opacity:0.004" fill="#fefffe" d="M 452.5,221.5 C 455.39,221.278 458.057,221.945 460.5,223.5C 465.178,227.679 469.678,232.012 474,236.5C 474.892,242.689 474.226,248.689 472,254.5C 465.031,248.532 458.364,242.199 452,235.5C 451.623,231.981 451.123,228.481 450.5,225C 450.862,223.566 451.528,222.399 452.5,221.5 Z"/></g>
<g><path style="opacity:0.004" fill="#fefffe" d="M 205.5,244.5 C 207.027,244.427 208.027,245.094 208.5,246.5C 206.973,246.573 205.973,245.906 205.5,244.5 Z"/></g>
<g><path style="opacity:0.004" fill="#fefffe" d="M 208.5,246.5 C 209.833,247.167 209.833,247.167 208.5,246.5 Z"/></g>
<g><path style="opacity:0.519" fill="#6e7ecd" d="M 74.5,251.5 C 67.8333,251.5 61.1667,251.5 54.5,251.5C 54.5,267.5 54.5,283.5 54.5,299.5C 53.5036,283.342 53.1702,267.009 53.5,250.5C 60.6866,250.175 67.6866,250.509 74.5,251.5 Z"/></g>
<g><path style="opacity:0.97" fill="#4155be" d="M 74.5,251.5 C 79.4704,251.971 83.3037,254.305 86,258.5C 89.2165,275.459 82.0498,283.126 64.5,281.5C 64.5,287.5 64.5,293.5 64.5,299.5C 61.1667,299.5 57.8333,299.5 54.5,299.5C 54.5,283.5 54.5,267.5 54.5,251.5C 61.1667,251.5 67.8333,251.5 74.5,251.5 Z M 68.5,261.5 C 67.7814,263.695 68.7814,265.195 71.5,266C 70.2396,267.113 69.073,267.28 68,266.5C 67.2195,267.944 67.3861,269.277 68.5,270.5C 75.1479,267.456 75.1479,264.456 68.5,261.5 Z"/></g>
<g><path style="opacity:0.004" fill="#fefffe" d="M 223.5,251.5 C 228.508,251.356 228.674,252.356 224,254.5C 220.963,253.68 220.796,252.68 223.5,251.5 Z"/></g>
<g><path style="opacity:0.662" fill="#7c8ad2" d="M 249.5,251.5 C 243.5,251.5 237.5,251.5 231.5,251.5C 231.5,267.5 231.5,283.5 231.5,299.5C 230.504,283.342 230.17,267.009 230.5,250.5C 237.022,250.177 243.355,250.51 249.5,251.5 Z"/></g>
<g><path style="opacity:0.973" fill="#4155be" d="M 249.5,251.5 C 258.823,253.463 261.99,259.13 259,268.5C 258.028,270.305 256.861,271.972 255.5,273.5C 263.115,276.73 265.948,282.397 264,290.5C 262.167,293.667 259.667,296.167 256.5,298C 248.236,299.37 239.903,299.87 231.5,299.5C 231.5,283.5 231.5,267.5 231.5,251.5C 237.5,251.5 243.5,251.5 249.5,251.5 Z M 244.5,261.5 C 243.306,263.484 243.306,265.484 244.5,267.5C 248.473,265.46 248.473,263.46 244.5,261.5 Z M 243.5,281.5 C 243.5,283.833 243.5,286.167 243.5,288.5C 245.806,288.007 248.139,287.674 250.5,287.5C 250.673,282.677 248.339,280.677 243.5,281.5 Z"/></g>
<g><path style="opacity:0.004" fill="#fefffe" d="M 203.5,254.5 C 205.707,253.13 207.374,253.797 208.5,256.5C 208.167,256.833 207.833,257.167 207.5,257.5C 205.84,256.828 204.507,255.828 203.5,254.5 Z"/></g>
<g><path style="opacity:0.004" fill="#fefffe" d="M 417.5,254.5 C 420.001,254.511 420.168,255.178 418,256.5C 417.536,255.906 417.369,255.239 417.5,254.5 Z"/></g>
<g><path style="opacity:0.004" fill="#fefffe" d="M 344.5,260.5 C 339.698,262.006 337.365,262.006 337.5,260.5C 337.5,259.5 337.5,258.5 337.5,257.5C 339.527,257.338 341.527,257.505 343.5,258C 344.252,258.671 344.586,259.504 344.5,260.5 Z"/></g>
<g><path style="opacity:0.004" fill="#fefffe" d="M 458.5,261.5 C 456.388,260.56 454.388,259.394 452.5,258C 455.872,256.878 457.872,258.045 458.5,261.5 Z"/></g>
<g><path style="opacity:0.954" fill="#4357bf" d="M 130.5,258.5 C 133.833,258.5 137.167,258.5 140.5,258.5C 140.5,262.167 140.5,265.833 140.5,269.5C 142.5,269.5 144.5,269.5 146.5,269.5C 146.5,272.167 146.5,274.833 146.5,277.5C 144.5,277.5 142.5,277.5 140.5,277.5C 140.334,281.846 140.501,286.179 141,290.5C 142.333,291.833 143.667,291.833 145,290.5C 149.102,299.111 146.268,302.277 136.5,300C 134.714,299.215 133.214,298.049 132,296.5C 130.63,290.258 130.13,283.925 130.5,277.5C 128.833,277.5 127.167,277.5 125.5,277.5C 125.5,274.833 125.5,272.167 125.5,269.5C 127.167,269.5 128.833,269.5 130.5,269.5C 130.5,265.833 130.5,262.167 130.5,258.5 Z"/></g>
<g><path style="opacity:0.962" fill="#4558bf" d="M 153.5,258.5 C 156.833,258.5 160.167,258.5 163.5,258.5C 163.5,262.167 163.5,265.833 163.5,269.5C 165.833,269.5 168.167,269.5 170.5,269.5C 170.5,272.167 170.5,274.833 170.5,277.5C 168.167,277.5 165.833,277.5 163.5,277.5C 163.334,281.514 163.501,285.514 164,289.5C 165.778,291.007 167.611,291.84 169.5,292C 170.322,294.434 170.656,296.934 170.5,299.5C 161.807,302.935 156.307,300.268 154,291.5C 153.501,286.845 153.334,282.179 153.5,277.5C 152.167,277.5 150.833,277.5 149.5,277.5C 149.5,274.833 149.5,272.167 149.5,269.5C 150.833,269.5 152.167,269.5 153.5,269.5C 153.5,265.833 153.5,262.167 153.5,258.5 Z"/></g>
<g><path style="opacity:0.063" fill="#fbfbfd" d="M 64.5,259.5 C 67.6074,259.351 70.6074,259.851 73.5,261C 77.3609,269.671 74.3609,273.505 64.5,272.5C 64.5,268.167 64.5,263.833 64.5,259.5 Z M 68.5,261.5 C 67.7814,263.695 68.7814,265.195 71.5,266C 70.2396,267.113 69.073,267.28 68,266.5C 67.2195,267.944 67.3861,269.277 68.5,270.5C 75.1479,267.456 75.1479,264.456 68.5,261.5 Z"/></g>
<g><path style="opacity:0.082" fill="#f1f2fa" d="M 241.5,259.5 C 249.49,259.086 251.49,262.253 247.5,269C 245.655,270.128 243.655,270.628 241.5,270.5C 241.5,266.833 241.5,263.167 241.5,259.5 Z M 244.5,261.5 C 243.306,263.484 243.306,265.484 244.5,267.5C 248.473,265.46 248.473,263.46 244.5,261.5 Z"/></g>
<g><path style="opacity:0.004" fill="#fefffe" d="M 344.5,260.5 C 346.857,260.337 349.19,260.503 351.5,261C 349.248,262.087 347.915,263.921 347.5,266.5C 345.17,267.971 342.836,268.304 340.5,267.5C 338.706,266.767 337.039,265.767 335.5,264.5C 337.34,264.727 339.34,264.227 341.5,263C 342.942,262.623 343.942,261.79 344.5,260.5 Z"/></g>
<g><path style="opacity:0.004" fill="#fefffe" d="M 458.5,261.5 C 461.416,263.568 464.249,265.901 467,268.5C 467.82,270.728 467.487,272.728 466,274.5C 464.652,270.469 462.319,267.136 459,264.5C 458.517,263.552 458.351,262.552 458.5,261.5 Z"/></g>
<g><path style="opacity:0.004" fill="#fefffe" d="M 355.5,263.5 C 356.833,264.167 356.833,264.167 355.5,263.5 Z"/></g>
<g><path style="opacity:0.004" fill="#fefffe" d="M 454.5,263.5 C 456.484,263.484 457.484,264.484 457.5,266.5C 457.085,268.909 456.418,271.242 455.5,273.5C 454.548,271.955 454.215,270.288 454.5,268.5C 450.5,267.833 450.5,267.167 454.5,266.5C 454.5,265.5 454.5,264.5 454.5,263.5 Z"/></g>
<g><path style="opacity:0.004" fill="#fefffe" d="M 361.5,264.5 C 363.337,264.639 363.67,265.306 362.5,266.5C 361.702,266.043 361.369,265.376 361.5,264.5 Z"/></g>
<g><path style="opacity:0.055" fill="#f8f9fc" d="M 305.5,301.5 C 307.742,293.569 311.742,286.569 317.5,280.5C 314.5,279.833 311.5,279.167 308.5,278.5C 305.929,275.168 305.929,271.835 308.5,268.5C 319.146,267.501 329.813,267.168 340.5,267.5C 340.66,269.199 340.494,270.866 340,272.5C 337.57,275.701 335.404,279.034 333.5,282.5C 331.697,284.481 330.03,286.648 328.5,289C 332.089,289.207 335.589,289.707 339,290.5C 336.899,276.632 342.566,268.632 356,266.5C 358.811,266.703 361.478,267.369 364,268.5C 368.333,267.167 372.667,267.167 377,268.5C 377.167,268.167 377.333,267.833 377.5,267.5C 376.624,266.749 375.624,266.249 374.5,266C 377.682,264.261 381.016,264.095 384.5,265.5C 383.232,267.047 381.565,268.047 379.5,268.5C 378.668,278.817 378.168,289.151 378,299.5C 377.5,300 377,300.5 376.5,301C 372.11,301.772 367.777,301.606 363.5,300.5C 354.032,304.261 346.532,301.928 341,293.5C 340.333,294.833 340.333,296.167 341,297.5C 343.175,300.376 345.675,302.876 348.5,305C 345.243,307.216 342.41,306.716 340,303.5C 339.25,304.126 338.416,304.626 337.5,305C 331.5,305.333 325.5,305.667 319.5,306C 316.868,306.449 314.368,307.283 312,308.5C 306.834,306.34 306.667,304.673 311.5,303.5C 318.834,304.376 326.334,304.709 334,304.5C 336.032,304.142 337.866,303.308 339.5,302C 328.172,301.5 316.838,301.333 305.5,301.5 Z M 356.5,279.5 C 360.748,279.278 363.415,281.278 364.5,285.5C 360.297,291.059 356.63,290.726 353.5,284.5C 354.26,282.64 355.26,280.973 356.5,279.5 Z"/></g>
<g><path style="opacity:0.004" fill="#fefffe" d="M 418.5,268.5 C 418.119,267.069 417.119,266.236 415.5,266C 416.563,264.812 417.897,264.312 419.5,264.5C 419.768,266.099 419.434,267.432 418.5,268.5 Z"/></g>
<g><path style="opacity:0.955" fill="#4558bf" d="M 122.5,280.5 C 122.5,282.167 122.5,283.833 122.5,285.5C 115.313,285.175 108.313,285.509 101.5,286.5C 102.849,291.678 106.182,293.512 111.5,292C 112.665,290.916 113.998,290.083 115.5,289.5C 117.833,290.667 120.167,291.833 122.5,293C 114.076,301.926 104.909,302.759 95,295.5C 87.4172,283.828 89.9172,274.995 102.5,269C 112.744,266.947 119.41,270.78 122.5,280.5 Z"/></g>
<g><path style="opacity:0.971" fill="#4457bf" d="M 185.5,268.5 C 201.401,266.908 208.901,273.908 208,289.5C 203.171,298.496 195.671,301.996 185.5,300C 175.839,296.517 172.006,289.684 174,279.5C 176.495,274.353 180.329,270.686 185.5,268.5 Z M 188.5,279.5 C 186.891,281.601 186.391,283.935 187,286.5C 188.99,289.722 191.49,290.222 194.5,288C 196.989,281.99 194.989,279.156 188.5,279.5 Z"/></g>
<g><path style="opacity:0.963" fill="#4356bf" d="M 278.5,268.5 C 283.677,267.703 288.177,269.036 292,272.5C 292.483,271.552 292.649,270.552 292.5,269.5C 295.833,269.5 299.167,269.5 302.5,269.5C 302.5,279.5 302.5,289.5 302.5,299.5C 299.167,299.5 295.833,299.5 292.5,299.5C 292.649,298.448 292.483,297.448 292,296.5C 282.002,303.376 274.336,301.376 269,290.5C 265.909,280.435 269.075,273.102 278.5,268.5 Z M 283.5,279.5 C 283.217,280.289 282.717,280.956 282,281.5C 281.012,289.538 283.679,291.204 290,286.5C 290.45,281.782 288.283,279.449 283.5,279.5 Z"/></g>
<g><path style="opacity:0.948" fill="#4155be" d="M 309.5,269.5 C 319.172,269.334 328.839,269.5 338.5,270C 333.833,277 329.167,284 324.5,291C 328.821,291.499 333.154,291.666 337.5,291.5C 337.5,294.167 337.5,296.833 337.5,299.5C 327.494,299.666 317.494,299.5 307.5,299C 312.167,292 316.833,285 321.5,278C 317.514,277.501 313.514,277.334 309.5,277.5C 309.5,274.833 309.5,272.167 309.5,269.5 Z"/></g>
<g><path style="opacity:0.966" fill="#4256be" d="M 351.5,268.5 C 356.606,267.925 361.106,269.259 365,272.5C 365.483,271.552 365.649,270.552 365.5,269.5C 368.833,269.5 372.167,269.5 375.5,269.5C 375.5,279.5 375.5,289.5 375.5,299.5C 372.167,299.5 368.833,299.5 365.5,299.5C 365.649,298.448 365.483,297.448 365,296.5C 356.274,302.777 348.941,301.444 343,292.5C 338.847,281.841 341.68,273.841 351.5,268.5 Z M 356.5,279.5 C 355.26,280.973 354.26,282.64 353.5,284.5C 356.63,290.726 360.297,291.059 364.5,285.5C 363.415,281.278 360.748,279.278 356.5,279.5 Z"/></g>
<g><path style="opacity:0.089" fill="#eef0f9" d="M 405.5,269.5 C 407.048,268.206 409.048,267.539 411.5,267.5C 413.921,267.56 416.254,267.893 418.5,268.5C 417.335,279.166 417.168,289.833 418,300.5C 413.531,301.811 409.031,301.811 404.5,300.5C 392.466,305.082 384.299,301.416 380,289.5C 379.148,270.691 387.648,264.024 405.5,269.5 Z M 395.5,279.5 C 403.486,278.998 405.486,282.165 401.5,289C 399.421,289.808 397.421,289.641 395.5,288.5C 394.276,285.505 394.276,282.505 395.5,279.5 Z"/></g>
<g><path style="opacity:0.964" fill="#4357bf" d="M 405.5,269.5 C 408.833,269.5 412.167,269.5 415.5,269.5C 415.5,279.5 415.5,289.5 415.5,299.5C 412.5,299.5 409.5,299.5 406.5,299.5C 406.026,295.843 404.693,295.676 402.5,299C 389.445,302.624 382.445,297.624 381.5,284C 381.842,274.828 386.509,269.662 395.5,268.5C 398.86,268.509 401.86,269.509 404.5,271.5C 405.298,271.043 405.631,270.376 405.5,269.5 Z M 395.5,279.5 C 394.276,282.505 394.276,285.505 395.5,288.5C 397.421,289.641 399.421,289.808 401.5,289C 405.486,282.165 403.486,278.998 395.5,279.5 Z"/></g>
<g><path style="opacity:0.04" fill="#f5f6fb" d="M 442.5,266.5 C 445.812,266.363 448.646,267.363 451,269.5C 451.667,270.5 451.667,271.5 451,272.5C 449.111,274.483 447.778,276.816 447,279.5C 446.311,280.357 445.478,281.023 444.5,281.5C 442.401,279.48 440.067,279.146 437.5,280.5C 435.26,285.003 434.927,289.669 436.5,294.5C 436.033,296.568 435.366,298.568 434.5,300.5C 430.5,301.833 426.5,301.833 422.5,300.5C 421.833,298.833 421.167,297.167 420.5,295.5C 421.821,287.303 421.821,279.137 420.5,271C 422.457,268.483 425.124,267.316 428.5,267.5C 431.043,267.64 433.377,268.306 435.5,269.5C 437.76,268.088 440.093,267.088 442.5,266.5 Z"/></g>
<g><path style="opacity:0.951" fill="#4055be" d="M 439.5,268.5 C 442.545,268.508 445.545,268.841 448.5,269.5C 447.929,272.477 446.929,275.31 445.5,278C 443.674,278.292 441.841,278.125 440,277.5C 438.105,277.615 436.438,278.282 435,279.5C 433.58,286.05 433.08,292.716 433.5,299.5C 430.167,299.5 426.833,299.5 423.5,299.5C 423.5,289.5 423.5,279.5 423.5,269.5C 426.833,269.5 430.167,269.5 433.5,269.5C 433.343,270.873 433.51,272.207 434,273.5C 435.73,271.598 437.563,269.931 439.5,268.5 Z"/></g>
<g><path style="opacity:0.122" fill="#f8f9fc" d="M 104.5,275.5 C 109.175,274.339 111.841,276.006 112.5,280.5C 108.774,280.823 105.107,280.489 101.5,279.5C 102.524,278.148 103.524,276.815 104.5,275.5 Z"/></g>
<g><path style="opacity:0.088" fill="#f4f5fb" d="M 188.5,277.5 C 196.379,277.216 199.212,280.883 197,288.5C 193,292.5 189,292.5 185,288.5C 183.518,283.774 184.685,280.107 188.5,277.5 Z M 188.5,279.5 C 186.891,281.601 186.391,283.935 187,286.5C 188.99,289.722 191.49,290.222 194.5,288C 196.989,281.99 194.989,279.156 188.5,279.5 Z"/></g>
<g><path style="opacity:0.102" fill="#eff0f9" d="M 355.5,277.5 C 363.775,276.706 366.942,280.373 365,288.5C 361,292.5 357,292.5 353,288.5C 350.826,284.193 351.659,280.526 355.5,277.5 Z M 356.5,279.5 C 355.26,280.973 354.26,282.64 353.5,284.5C 356.63,290.726 360.297,291.059 364.5,285.5C 363.415,281.278 360.748,279.278 356.5,279.5 Z"/></g>
<g><path style="opacity:0.064" fill="#f4f4fb" d="M 396.5,277.5 C 404.379,277.216 407.212,280.883 405,288.5C 401,292.5 397,292.5 393,288.5C 391.518,283.774 392.685,280.107 396.5,277.5 Z M 395.5,279.5 C 394.276,282.505 394.276,285.505 395.5,288.5C 397.421,289.641 399.421,289.808 401.5,289C 405.486,282.165 403.486,278.998 395.5,279.5 Z"/></g>
<g><path style="opacity:0.082" fill="#f2f3fa" d="M 282.5,277.5 C 291.549,277.701 294.215,281.868 290.5,290C 281.956,293.322 278.123,290.489 279,281.5C 280.376,280.295 281.542,278.962 282.5,277.5 Z M 283.5,279.5 C 283.217,280.289 282.717,280.956 282,281.5C 281.012,289.538 283.679,291.204 290,286.5C 290.45,281.782 288.283,279.449 283.5,279.5 Z"/></g>
<g><path style="opacity:0.092" fill="#f4f4fb" d="M 241.5,279.5 C 244.941,279.301 248.274,279.801 251.5,281C 253.715,289.293 250.382,292.793 241.5,291.5C 241.5,287.5 241.5,283.5 241.5,279.5 Z M 243.5,281.5 C 243.5,283.833 243.5,286.167 243.5,288.5C 245.806,288.007 248.139,287.674 250.5,287.5C 250.673,282.677 248.339,280.677 243.5,281.5 Z"/></g>
<g><path style="opacity:0.004" fill="#fefffe" d="M 306.5,280.5 C 308.927,280.523 311.26,281.023 313.5,282C 312.5,282.333 311.5,282.667 310.5,283C 311.196,284.488 310.862,285.988 309.5,287.5C 308.158,286.098 307.324,286.431 307,288.5C 306.503,285.854 306.336,283.187 306.5,280.5 Z"/></g>
<g><path style="opacity:0.004" fill="#fefffe" d="M 166.5,281.5 C 168.465,281.948 168.798,282.948 167.5,284.5C 166.614,283.675 166.281,282.675 166.5,281.5 Z"/></g>
<g><path style="opacity:0.004" fill="#fefffe" d="M 189.5,282.5 C 190.5,282.5 191.5,282.5 192.5,282.5C 192.034,287.584 190.368,288.25 187.5,284.5C 188.243,283.818 188.909,283.151 189.5,282.5 Z"/></g>
<g><path style="opacity:0.004" fill="#fefffe" d="M 282.5,283.5 C 284.185,282.156 285.852,282.323 287.5,284C 286.584,284.374 285.75,284.874 285,285.5C 284.292,284.619 283.458,283.953 282.5,283.5 Z"/></g>
<g><path style="opacity:0.004" fill="#fefffe" d="M 333.5,282.5 C 336.084,283.048 337.084,284.715 336.5,287.5C 332.67,287.504 331.67,285.838 333.5,282.5 Z"/></g>
<g><path style="opacity:0.545" fill="#9da8de" d="M 122.5,280.5 C 123.461,282.265 123.795,284.265 123.5,286.5C 116.167,286.5 108.833,286.5 101.5,286.5C 108.313,285.509 115.313,285.175 122.5,285.5C 122.5,283.833 122.5,282.167 122.5,280.5 Z"/></g>
<g><path style="opacity:0.004" fill="#fefffe" d="M 440.5,288.5 C 441.613,289.946 441.78,291.613 441,293.5C 440.506,291.866 440.34,290.199 440.5,288.5 Z"/></g>
<g><path style="opacity:0.004" fill="#fefffe" d="M 266.5,298.5 C 273.197,301.358 272.864,303.358 265.5,304.5C 265.517,302.435 265.85,300.435 266.5,298.5 Z"/></g>
<g><path style="opacity:0.004" fill="#fefffe" d="M 383.5,301.5 C 382.596,302.209 382.263,303.209 382.5,304.5C 380.716,304.107 379.05,303.441 377.5,302.5C 379.406,298.093 381.406,297.76 383.5,301.5 Z"/></g>
<g><path style="opacity:0.004" fill="#fefffe" d="M 305.5,301.5 C 305.703,303.39 305.037,304.89 303.5,306C 300.697,306.755 298.03,306.422 295.5,305C 299.208,304.71 302.541,303.543 305.5,301.5 Z"/></g>
<g><path style="opacity:0.004" fill="#fefffe" d="M 383.5,301.5 C 384.833,302.167 384.833,302.167 383.5,301.5 Z"/></g>
<g><path style="opacity:0.004" fill="#fefffe" d="M 419.5,301.5 C 420.833,302.167 420.833,302.167 419.5,301.5 Z"/></g>
<g><path style="opacity:0.004" fill="#fefffe" d="M 288.5,302.5 C 290.048,302.821 290.715,303.821 290.5,305.5C 287.496,306.089 284.663,307.089 282,308.5C 278.987,307.955 278.821,306.789 281.5,305C 283.5,304.667 285.5,304.333 287.5,304C 288.056,303.617 288.389,303.117 288.5,302.5 Z"/></g>
<g><path style="opacity:0.004" fill="#fefffe" d="M 362.5,302.5 C 363.097,302.735 363.43,303.235 363.5,304C 360.67,307.832 357.004,308.999 352.5,307.5C 355.855,305.596 359.189,303.929 362.5,302.5 Z"/></g>
<g><path style="opacity:0.004" fill="#fefffe" d="M 377.5,302.5 C 377.5,303.833 376.833,304.5 375.5,304.5C 375.833,303.5 376.5,302.833 377.5,302.5 Z"/></g>
<g><path style="opacity:0.004" fill="#fefffe" d="M 416.5,302.5 C 417.043,302.56 417.376,302.893 417.5,303.5C 415.206,306.601 412.54,307.101 409.5,305C 411.927,304.098 414.26,303.264 416.5,302.5 Z"/></g>
<g><path style="opacity:0.004" fill="#fefffe" d="M 402.5,303.5 C 404.379,303.393 404.712,303.893 403.5,305C 401.833,305.667 400.167,305.667 398.5,305C 400.058,304.79 401.391,304.29 402.5,303.5 Z"/></g>
<g><path style="opacity:0.004" fill="#fefffe" d="M 375.5,304.5 C 373.517,306.978 371.184,307.145 368.5,305C 370.81,304.503 373.143,304.337 375.5,304.5 Z"/></g>
<g><path style="opacity:0.004" fill="#fefffe" d="M 382.5,304.5 C 383.833,305.167 383.833,305.167 382.5,304.5 Z"/></g>
<g><path style="opacity:0.004" fill="#fefffe" d="M 394.5,308.5 C 395.251,307.427 396.251,307.26 397.5,308C 396.552,308.483 395.552,308.649 394.5,308.5 Z"/></g>
<g><path style="opacity:0.004" fill="#fefffe" d="M 429.5,313.5 C 430.833,313.5 432.167,313.5 433.5,313.5C 432.951,315.901 432.118,318.235 431,320.5C 427.775,323.313 425.942,322.48 425.5,318C 426.167,315.849 427.5,314.349 429.5,313.5 Z"/></g>
<g><path style="opacity:0.086" fill="#f1f1f1" d="M 292.5,319.5 C 293.634,322.034 295.634,323.367 298.5,323.5C 298.656,327.582 298.156,331.582 297,335.5C 294.888,337.922 292.888,337.922 291,335.5C 289.806,336.43 288.473,337.097 287,337.5C 284.205,336.815 281.372,336.315 278.5,336C 278,335.5 277.5,335 277,334.5C 272.877,338.616 270.544,337.616 270,331.5C 269.654,333.848 268.487,335.681 266.5,337C 263.5,336.333 260.5,336.333 257.5,337C 255.917,333.092 254.584,329.092 253.5,325C 254.167,324.333 254.833,323.667 255.5,323C 260.686,323.088 266.019,322.755 271.5,322C 272.381,320.529 273.714,319.696 275.5,319.5C 277.876,320.541 280.21,320.541 282.5,319.5C 284.088,320.01 285.255,321.01 286,322.5C 286.483,321.552 286.649,320.552 286.5,319.5C 288.5,319.5 290.5,319.5 292.5,319.5 Z"/></g>
<g><path style="opacity:0.078" fill="#efefef" d="M 352.5,319.5 C 355.285,319.933 357.619,321.266 359.5,323.5C 362.103,322.438 364.77,322.272 367.5,323C 368.126,323.75 368.626,324.584 369,325.5C 369.333,323.833 369.667,322.167 370,320.5C 370.893,319.919 371.893,319.585 373,319.5C 375.166,320.164 377.166,321.164 379,322.5C 381.822,323.73 384.655,323.73 387.5,322.5C 389.593,322.486 391.426,323.152 393,324.5C 394.299,323.02 395.966,322.354 398,322.5C 401.762,322.968 405.596,323.135 409.5,323C 410.743,324.154 411.743,325.488 412.5,327C 412.348,334.496 408.682,337.496 401.5,336C 400.082,331.98 398.749,331.813 397.5,335.5C 396.372,336.262 395.205,336.929 394,337.5C 393.167,336.5 392.333,335.5 391.5,334.5C 388.169,336.639 384.669,336.972 381,335.5C 379.715,335.95 378.548,336.617 377.5,337.5C 374.298,336.873 371.131,336.206 368,335.5C 363.164,336.162 358.33,336.495 353.5,336.5C 348.163,335.343 347.163,332.51 350.5,328C 349.978,327.05 349.311,326.216 348.5,325.5C 349.657,323.317 350.99,321.317 352.5,319.5 Z"/></g>
<g><path style="opacity:0.87" fill="#191919" d="M 371.5,321.5 C 373.197,323.305 374.03,325.639 374,328.5C 380.153,323.156 380.653,323.489 375.5,329.5C 376.624,330.914 377.624,332.414 378.5,334C 377.365,334.749 376.365,334.583 375.5,333.5C 373.807,329.678 372.473,330.011 371.5,334.5C 370.726,330.208 370.726,325.875 371.5,321.5 Z"/></g>
<g><path style="opacity:0.85" fill="#1c1c1c" d="M 167.5,322.5 C 168.922,322.75 169.922,323.583 170.5,325C 168.177,327.506 167.844,330.34 169.5,333.5C 167.505,334.89 166.172,334.39 165.5,332C 166.758,329.815 166.758,327.648 165.5,325.5C 166.612,324.735 167.279,323.735 167.5,322.5 Z"/></g>
<g><path style="opacity:0.852" fill="#222222" d="M 236.5,321.5 C 238.026,322.105 239.026,323.271 239.5,325C 237.177,327.506 236.844,330.34 238.5,333.5C 236.796,334.823 235.463,334.49 234.5,332.5C 235.788,329.966 235.788,327.466 234.5,325C 235.973,324.29 236.64,323.124 236.5,321.5 Z"/></g>
<g><path style="opacity:0.541" fill="#2c2c2c" d="M 274.5,321.5 C 276.337,321.639 276.67,322.306 275.5,323.5C 274.702,323.043 274.369,322.376 274.5,321.5 Z"/></g>
<g><path style="opacity:0.883" fill="#191919" d="M 280.5,322.5 C 281.931,323.082 283.264,323.915 284.5,325C 281.339,327.079 280.672,329.913 282.5,333.5C 281.675,334.386 280.675,334.719 279.5,334.5C 279.74,331.421 279.407,328.421 278.5,325.5C 279.612,324.735 280.279,323.735 280.5,322.5 Z"/></g>
<g><path style="opacity:0.086" fill="#f1f1f1" d="M 305.5,322.5 C 310.368,323.267 315.202,323.267 320,322.5C 322.034,322.354 323.701,323.02 325,324.5C 326.739,323.106 328.739,322.439 331,322.5C 335.091,322.88 339.258,323.047 343.5,323C 345.504,325.841 346.004,329.007 345,332.5C 342.437,336.378 338.937,337.378 334.5,335.5C 333.787,333.224 333.287,330.891 333,328.5C 331.983,330.376 331.149,332.376 330.5,334.5C 328.74,337.926 326.574,338.259 324,335.5C 320.108,337.067 316.442,336.733 313,334.5C 303.943,339.103 300.276,336.437 302,326.5C 303.032,324.973 304.199,323.64 305.5,322.5 Z"/></g>
<g><path style="opacity:0.85" fill="#171717" d="M 352.5,322.5 C 356.346,323.712 356.846,325.379 354,327.5C 353.313,329.568 353.48,331.568 354.5,333.5C 353.675,334.386 352.675,334.719 351.5,334.5C 352.239,330.34 352.572,326.34 352.5,322.5 Z"/></g>
<g><path style="opacity:0.871" fill="#222222" d="M 118.5,324.5 C 120.669,325.082 123.002,325.082 125.5,324.5C 125.82,327.898 125.487,331.232 124.5,334.5C 123.52,331.914 123.187,329.247 123.5,326.5C 122.325,326.281 121.325,326.614 120.5,327.5C 119.626,329.747 119.292,332.08 119.5,334.5C 118.5,334.5 117.5,334.5 116.5,334.5C 117.167,331.167 117.833,327.833 118.5,324.5 Z"/></g>
<g><path style="opacity:0.836" fill="#161616" d="M 174.5,324.5 C 175.497,324.47 176.164,324.97 176.5,326C 175.972,328.862 175.305,331.696 174.5,334.5C 173.447,331.185 173.447,327.852 174.5,324.5 Z"/></g>
<g><path style="opacity:0.864" fill="#202020" d="M 210.5,324.5 C 212.787,325.355 215.12,325.522 217.5,325C 220.433,329.318 219.433,332.484 214.5,334.5C 213.558,334.392 212.725,334.059 212,333.5C 211.02,335.059 210.187,336.726 209.5,338.5C 209.167,337.833 208.833,337.167 208.5,336.5C 209.384,332.527 210.051,328.527 210.5,324.5 Z"/></g>
<g><path style="opacity:0.901" fill="#1b1b1b" d="M 257.5,324.5 C 259.197,326.305 260.03,328.639 260,331.5C 260.667,329.5 261.333,327.5 262,325.5C 263.011,324.663 264.178,324.33 265.5,324.5C 265.222,333.019 266.056,333.352 268,325.5C 268.893,324.289 269.726,324.289 270.5,325.5C 269.167,328.167 267.833,330.833 266.5,333.5C 265.675,334.386 264.675,334.719 263.5,334.5C 263.92,325.852 262.92,325.519 260.5,333.5C 259.675,334.386 258.675,334.719 257.5,334.5C 257.5,331.167 257.5,327.833 257.5,324.5 Z"/></g>
<g><path style="opacity:0.864" fill="#151515" d="M 273.5,324.5 C 274.586,324.62 275.253,325.287 275.5,326.5C 275.046,329.222 274.38,331.889 273.5,334.5C 272.599,331.205 272.599,327.872 273.5,324.5 Z"/></g>
<g><path style="opacity:0.825" fill="#1f1f1f" d="M 327.5,324.5 C 329.678,325.204 331.678,325.537 333.5,325.5C 332.372,326.262 331.205,326.929 330,327.5C 329.319,329.895 328.485,332.228 327.5,334.5C 327.024,331.26 327.024,327.927 327.5,324.5 Z"/></g>
<g><path style="opacity:0.817" fill="#262626" d="M 395.5,324.5 C 397.225,325.278 398.891,325.611 400.5,325.5C 396.993,327.461 395.66,330.461 396.5,334.5C 395.5,334.5 394.5,334.5 393.5,334.5C 394.167,331.167 394.833,327.833 395.5,324.5 Z"/></g>
<g><path style="opacity:0.894" fill="#191919" d="M 94.5,321.5 C 97.5959,320.907 99.9292,321.907 101.5,324.5C 99.2197,323.689 96.7197,323.689 94,324.5C 92.627,326.695 92.2937,329.029 93,331.5C 93.7247,332.059 94.5581,332.392 95.5,332.5C 97.155,331.612 98.8217,331.112 100.5,331C 98.3949,334.354 95.5615,335.187 92,333.5C 89.5112,328.757 90.3445,324.757 94.5,321.5 Z"/></g>
<g><path style="opacity:0.838" fill="#181818" d="M 107.5,324.5 C 112.494,324.329 114.328,326.662 113,331.5C 109.16,335.828 106.326,335.328 104.5,330C 104.863,327.808 105.863,325.974 107.5,324.5 Z"/></g>
<g><path style="opacity:0.789" fill="#121212" d="M 130.5,324.5 C 133.013,324.974 135.513,325.307 138,325.5C 138.602,328.662 138.102,331.662 136.5,334.5C 136.218,332.013 136.218,329.347 136.5,326.5C 135.178,326.33 134.011,326.663 133,327.5C 132.105,329.804 131.271,332.138 130.5,334.5C 129.599,331.205 129.599,327.872 130.5,324.5 Z"/></g>
<g><path style="opacity:0.826" fill="#222222" d="M 150.5,329.5 C 148.5,329.5 146.5,329.5 144.5,329.5C 144.5,330.5 144.5,331.5 144.5,332.5C 146.398,331.904 148.065,331.904 149.5,332.5C 144.41,335.939 141.91,334.606 142,328.5C 143.395,324.694 145.895,323.694 149.5,325.5C 150.429,326.689 150.762,328.022 150.5,329.5 Z"/></g>
<g><path style="opacity:0.797" fill="#121212" d="M 180.5,324.5 C 183.013,324.974 185.513,325.307 188,325.5C 188.602,328.662 188.102,331.662 186.5,334.5C 186.218,332.013 186.218,329.347 186.5,326.5C 185.178,326.33 184.011,326.663 183,327.5C 182.105,329.804 181.271,332.138 180.5,334.5C 179.599,331.205 179.599,327.872 180.5,324.5 Z"/></g>
<g><path style="opacity:0.819" fill="#121212" d="M 230.5,326.5 C 230.5,327.5 230.5,328.5 230.5,329.5C 228.265,329.205 226.265,329.539 224.5,330.5C 224.62,331.586 225.287,332.253 226.5,332.5C 230.22,330.825 230.886,331.325 228.5,334C 223.504,334.664 221.67,332.498 223,327.5C 225.322,324.111 227.822,323.777 230.5,326.5 Z"/></g>
<g><path style="opacity:0.819" fill="#242424" d="M 243.5,324.5 C 245.977,324.051 247.977,324.717 249.5,326.5C 248.167,326.833 246.833,327.167 245.5,327.5C 246.751,328.631 247.751,329.964 248.5,331.5C 246.683,335.334 244.349,335.5 241.5,332C 247.125,332.87 247.625,331.704 243,328.5C 242.421,327.072 242.588,325.738 243.5,324.5 Z"/></g>
<g><path style="opacity:0.883" fill="#1c1c1c" d="M 288.5,321.5 C 290.045,322.23 290.878,323.563 291,325.5C 292.333,324.167 293.667,324.167 295,325.5C 295.498,328.482 295.665,331.482 295.5,334.5C 294.448,334.649 293.448,334.483 292.5,334C 293.435,331.619 293.768,329.119 293.5,326.5C 292.178,326.33 291.011,326.663 290,327.5C 289.319,329.895 288.485,332.228 287.5,334.5C 287.167,333.833 286.833,333.167 286.5,332.5C 287.276,328.841 287.943,325.175 288.5,321.5 Z"/></g>
<g><path style="opacity:0.888" fill="#1c1c1c" d="M 317.5,324.5 C 319.199,324.34 320.866,324.506 322.5,325C 323.232,328.153 322.899,331.32 321.5,334.5C 319.584,333.752 317.584,333.752 315.5,334.5C 314.987,330.076 316.987,327.743 321.5,327.5C 320.224,326.355 318.891,326.355 317.5,327.5C 316.438,326.575 316.438,325.575 317.5,324.5 Z"/></g>
<g><path style="opacity:0.847" fill="#191919" d="M 343.5,329.5 C 341.167,329.5 338.833,329.5 336.5,329.5C 336.263,330.791 336.596,331.791 337.5,332.5C 343.571,331.022 343.904,331.689 338.5,334.5C 333.574,332.001 333.241,328.835 337.5,325C 341.348,324.013 343.348,325.513 343.5,329.5 Z"/></g>
<g><path style="opacity:0.89" fill="#212121" d="M 361.5,324.5 C 363.144,324.286 364.644,324.62 366,325.5C 366.821,328.554 366.655,331.554 365.5,334.5C 363.329,334.273 361.162,333.94 359,333.5C 358.333,332.5 358.333,331.5 359,330.5C 360.78,329.406 362.614,328.406 364.5,327.5C 363.609,326.41 362.609,326.41 361.5,327.5C 360.438,326.575 360.438,325.575 361.5,324.5 Z"/></g>
<g><path style="opacity:0.795" fill="#1b1b1b" d="M 390.5,329.5 C 388.5,329.5 386.5,329.5 384.5,329.5C 384.5,330.5 384.5,331.5 384.5,332.5C 386.398,331.904 388.065,331.904 389.5,332.5C 383.646,336.13 381.48,334.463 383,327.5C 384.481,324.92 386.648,324.087 389.5,325C 390.38,326.356 390.714,327.856 390.5,329.5 Z"/></g>
<g><path style="opacity:0.8" fill="#242424" d="M 403.5,324.5 C 405.977,324.051 407.977,324.717 409.5,326.5C 408.167,326.833 406.833,327.167 405.5,327.5C 406.751,328.631 407.751,329.964 408.5,331.5C 406.683,335.334 404.349,335.5 401.5,332C 407.125,332.87 407.625,331.704 403,328.5C 402.421,327.072 402.588,325.738 403.5,324.5 Z"/></g>
<g><path style="opacity:0.17" fill="#e2e2e2" d="M 107.5,326.5 C 108.833,326.5 110.167,326.5 111.5,326.5C 111.66,328.199 111.494,329.866 111,331.5C 106.633,332.575 105.466,330.908 107.5,326.5 Z"/></g>
<g><path style="opacity:0.349" fill="#f0f0f0" d="M 145.5,326.5 C 146.675,326.281 147.675,326.614 148.5,327.5C 147.277,328.614 145.944,328.781 144.5,328C 145.056,327.617 145.389,327.117 145.5,326.5 Z"/></g>
<g><path style="opacity:0.878" fill="#242424" d="M 193.5,334.5 C 190.789,331.131 191.122,327.964 194.5,325C 196.657,324.922 198.657,324.755 200.5,324.5C 201.238,328.129 201.071,331.796 200,335.5C 197.123,339.164 194.29,339.331 191.5,336C 191.836,334.97 192.503,334.47 193.5,334.5 Z"/></g>
<g><path style="opacity:0.162" fill="#eeeeee" d="M 195.5,326.5 C 199.82,326.959 200.487,328.792 197.5,332C 196.552,332.483 195.552,332.649 194.5,332.5C 194.325,330.379 194.659,328.379 195.5,326.5 Z"/></g>
<g><path style="opacity:0.101" fill="#eeeeee" d="M 213.5,326.5 C 217.82,326.959 218.487,328.792 215.5,332C 214.552,332.483 213.552,332.649 212.5,332.5C 212.325,330.379 212.659,328.379 213.5,326.5 Z"/></g>
<g><path style="opacity:0.466" fill="#d9d9d9" d="M 225.5,326.5 C 227.103,326.312 228.437,326.812 229.5,328C 227.833,328.667 226.167,328.667 224.5,328C 225.056,327.617 225.389,327.117 225.5,326.5 Z"/></g>
<g><path style="opacity:0.532" fill="#dedede" d="M 337.5,326.5 C 338.978,326.238 340.311,326.571 341.5,327.5C 340.833,327.833 340.167,328.167 339.5,328.5C 338.287,328.253 337.62,327.586 337.5,326.5 Z"/></g>
<g><path style="opacity:0.378" fill="#ededed" d="M 385.5,326.5 C 386.675,326.281 387.675,326.614 388.5,327.5C 387.277,328.614 385.944,328.781 384.5,328C 385.056,327.617 385.389,327.117 385.5,326.5 Z"/></g>
<g><path style="opacity:0.924" fill="#1f1f1f" d="M 156.5,324.5 C 159.278,324.022 161.278,325.022 162.5,327.5C 162.167,327.833 161.833,328.167 161.5,328.5C 157.383,325.901 155.383,327.234 155.5,332.5C 157.575,332.302 159.575,332.135 161.5,332C 155.84,336.02 153.34,334.52 154,327.5C 155.045,326.627 155.878,325.627 156.5,324.5 Z"/></g>
<g><path style="opacity:0.931" fill="#1f1f1f" d="M 306.5,324.5 C 309.278,324.022 311.278,325.022 312.5,327.5C 312.167,327.833 311.833,328.167 311.5,328.5C 307.383,325.901 305.383,327.234 305.5,332.5C 307.575,332.302 309.575,332.135 311.5,332C 305.84,336.02 303.34,334.52 304,327.5C 305.045,326.627 305.878,325.627 306.5,324.5 Z"/></g>
<g><path style="opacity:0.722" fill="#747474" d="M 230.5,326.5 C 231.434,327.568 231.768,328.901 231.5,330.5C 229.167,330.5 226.833,330.5 224.5,330.5C 226.265,329.539 228.265,329.205 230.5,329.5C 230.5,328.5 230.5,327.5 230.5,326.5 Z"/></g>
<g><path style="opacity:0.776" fill="#7c7c7c" d="M 343.5,329.5 C 341.156,329.94 339.156,330.94 337.5,332.5C 336.596,331.791 336.263,330.791 336.5,329.5C 338.833,329.5 341.167,329.5 343.5,329.5 Z"/></g>
<g><path style="opacity:0.704" fill="#a6a6a6" d="M 390.5,329.5 C 390.737,330.791 390.404,331.791 389.5,332.5C 388.065,331.904 386.398,331.904 384.5,332.5C 384.5,331.5 384.5,330.5 384.5,329.5C 386.5,329.5 388.5,329.5 390.5,329.5 Z"/></g>
<g><path style="opacity:0.694" fill="#bababa" d="M 150.5,329.5 C 150.737,330.791 150.404,331.791 149.5,332.5C 148.065,331.904 146.398,331.904 144.5,332.5C 144.5,331.5 144.5,330.5 144.5,329.5C 146.5,329.5 148.5,329.5 150.5,329.5 Z"/></g>
<g><path style="opacity:0.362" fill="#e2e2e2" d="M 318.5,329.5 C 321.012,330.216 321.012,331.216 318.5,332.5C 317.438,331.575 317.438,330.575 318.5,329.5 Z"/></g>
<g><path style="opacity:0.405" fill="#cacaca" d="M 362.5,329.5 C 365.028,330.518 364.861,331.518 362,332.5C 361.5,332.167 361,331.833 360.5,331.5C 361.243,330.818 361.909,330.151 362.5,329.5 Z"/></g>
<g><path style="opacity:0.264" fill="#dddddd" d="M 193.5,334.5 C 195.331,333.948 196.997,333.948 198.5,334.5C 196.665,337.063 194.998,337.063 193.5,334.5 Z"/></g>
<g><path style="opacity:0.004" fill="#fefffe" d="M 298.5,335.5 C 299.598,336.601 299.765,337.934 299,339.5C 298.51,338.207 298.343,336.873 298.5,335.5 Z"/></g>
<g><path style="opacity:0.004" fill="#fefffe" d="M 112.5,338.5 C 109.455,340.957 106.122,340.957 102.5,338.5C 99.401,340.636 96.0677,340.97 92.5,339.5C 95.4946,338.867 98.328,337.867 101,336.5C 104.62,338.183 108.454,338.85 112.5,338.5 Z"/></g>
<g><path style="opacity:0.004" fill="#fefffe" d="M 149.5,336.5 C 150.5,336.5 151.5,336.5 152.5,336.5C 152.67,337.822 152.337,338.989 151.5,340C 149.833,340.167 148.167,340.333 146.5,340.5C 141.86,340.139 137.193,339.806 132.5,339.5C 135.157,338.741 137.823,338.074 140.5,337.5C 143.809,338.999 146.809,338.666 149.5,336.5 Z"/></g>
<g><path style="opacity:0.004" fill="#fefffe" d="M 160.5,337.5 C 163.999,337.259 164.332,338.092 161.5,340C 159.098,340.814 156.765,340.647 154.5,339.5C 156.631,338.831 158.631,338.165 160.5,337.5 Z"/></g>
<g><path style="opacity:0.004" fill="#fefffe" d="M 269.5,338.5 C 268.833,337.167 268.833,337.167 269.5,338.5 Z"/></g>
<g><path style="opacity:0.004" fill="#fefffe" d="M 332.5,337.5 C 333.833,338.167 333.833,338.167 332.5,337.5 Z"/></g>
<g><path style="opacity:0.004" fill="#fefffe" d="M 341.5,337.5 C 343.842,337.775 343.842,338.608 341.5,340C 340.056,340.781 338.723,340.614 337.5,339.5C 338.949,338.828 340.282,338.161 341.5,337.5 Z"/></g>
<g><path style="opacity:0.004" fill="#fefffe" d="M 120.5,338.5 C 121.978,338.238 123.311,338.571 124.5,339.5C 123.833,339.833 123.167,340.167 122.5,340.5C 121.287,340.253 120.62,339.586 120.5,338.5 Z"/></g>
<g><path style="opacity:0.004" fill="#fefffe" d="M 125.5,339.5 C 127.517,338.126 129.517,338.293 131.5,340C 129.402,340.678 127.402,340.511 125.5,339.5 Z"/></g>
<g><path style="opacity:0.004" fill="#fefffe" d="M 169.5,338.5 C 171.288,338.215 172.955,338.548 174.5,339.5C 173.667,339.833 172.833,340.167 172,340.5C 170.624,340.316 169.791,339.649 169.5,338.5 Z"/></g>
<g><path style="opacity:0.004" fill="#fefffe" d="M 176.5,338.5 C 180.048,338.095 183.381,338.595 186.5,340C 183.874,339.852 181.374,340.019 179,340.5C 177.624,340.316 176.791,339.649 176.5,338.5 Z"/></g>
<g><path style="opacity:0.004" fill="#fefffe" d="M 268.5,338.5 C 268.361,340.337 267.694,340.67 266.5,339.5C 266.957,338.702 267.624,338.369 268.5,338.5 Z"/></g>
<g><path style="opacity:0.004" fill="#fefffe" d="M 269.5,338.5 C 270.675,338.281 271.675,338.614 272.5,339.5C 270.948,340.798 269.948,340.465 269.5,338.5 Z"/></g>
<g><path style="opacity:0.004" fill="#fefffe" d="M 278.5,338.5 C 280.337,338.639 280.67,339.306 279.5,340.5C 278.702,340.043 278.369,339.376 278.5,338.5 Z"/></g>
<g><path style="opacity:0.004" fill="#fefffe" d="M 282.5,338.5 C 284.288,338.215 285.955,338.548 287.5,339.5C 286.667,339.833 285.833,340.167 285,340.5C 283.624,340.316 282.791,339.649 282.5,338.5 Z"/></g>
<g><path style="opacity:0.004" fill="#fefffe" d="M 295.5,342.5 C 291.689,343.645 287.689,343.812 283.5,343C 285.952,342.71 288.285,342.044 290.5,341C 289.098,339.658 289.431,338.824 291.5,338.5C 294.028,339.169 294.028,340.002 291.5,341C 292.563,342.188 293.897,342.688 295.5,342.5 Z"/></g>
<g><path style="opacity:0.004" fill="#fefffe" d="M 308.5,338.5 C 309.376,338.369 310.043,338.702 310.5,339.5C 308.926,340.631 307.259,340.798 305.5,340C 306.737,339.768 307.737,339.268 308.5,338.5 Z"/></g>
<g><path style="opacity:0.004" fill="#fefffe" d="M 317.5,338.5 C 318.675,338.281 319.675,338.614 320.5,339.5C 318.948,340.798 317.948,340.465 317.5,338.5 Z"/></g>
<g><path style="opacity:0.004" fill="#fefffe" d="M 323.5,339.5 C 324.708,338.218 326.042,338.218 327.5,339.5C 326.192,340.626 324.858,340.626 323.5,339.5 Z"/></g>
<g><path style="opacity:0.004" fill="#fefffe" d="M 350.5,338.5 C 352.983,338.73 353.483,339.397 352,340.5C 350.97,340.164 350.47,339.497 350.5,338.5 Z"/></g>
<g><path style="opacity:0.004" fill="#fefffe" d="M 358.5,338.5 C 360.604,338.201 362.604,338.534 364.5,339.5C 363.5,339.833 362.5,340.167 361.5,340.5C 359.97,340.36 358.97,339.693 358.5,338.5 Z"/></g>
<g><path style="opacity:0.004" fill="#fefffe" d="M 368.5,338.5 C 371.797,338.329 372.131,338.995 369.5,340.5C 368.702,340.043 368.369,339.376 368.5,338.5 Z"/></g>
<g><path style="opacity:0.004" fill="#fefffe" d="M 296.5,340.5 C 297.833,341.167 297.833,341.167 296.5,340.5 Z"/></g>
<g><path style="opacity:0.004" fill="#fefffe" d="M 107.5,341.5 C 108.773,342.077 108.773,342.743 107.5,343.5C 106.537,343.03 106.537,342.363 107.5,341.5 Z"/></g>
<g><path style="opacity:0.004" fill="#fefffe" d="M 144.5,341.5 C 148.276,341.469 148.443,342.136 145,343.5C 143.316,343.317 143.15,342.65 144.5,341.5 Z"/></g>
<g><path style="opacity:0.004" fill="#fefffe" d="M 156.5,341.5 C 157.376,341.369 158.043,341.702 158.5,342.5C 156.192,343.873 155.525,343.54 156.5,341.5 Z"/></g>
<g><path style="opacity:0.004" fill="#fefffe" d="M 185.5,341.5 C 187.337,341.639 187.67,342.306 186.5,343.5C 185.702,343.043 185.369,342.376 185.5,341.5 Z"/></g>
<g><path style="opacity:0.004" fill="#fefffe" d="M 296.5,341.5 C 295.833,342.167 295.833,342.167 296.5,341.5 Z"/></g>
<g><path style="opacity:0.004" fill="#fefffe" d="M 305.5,342.5 C 306.251,341.427 307.251,341.26 308.5,342C 307.648,343.728 306.648,343.895 305.5,342.5 Z"/></g>
<g><path style="opacity:0.004" fill="#fefffe" d="M 222.5,344.5 C 224.103,344.312 225.437,344.812 226.5,346C 224.833,346.667 223.167,346.667 221.5,346C 222.056,345.617 222.389,345.117 222.5,344.5 Z"/></g>
<g><path style="opacity:0.004" fill="#fefffe" d="M -0.5,478.5 C 0.0425648,484.491 0.875898,490.491 2,496.5C 2.95603,495.106 4.28937,494.439 6,494.5C 10.3531,494.602 14.8531,494.768 19.5,495C 19.9574,495.414 20.2907,495.914 20.5,496.5C 17.5851,498.499 14.4184,498.833 11,497.5C 8.1789,497.408 5.6789,498.074 3.5,499.5C 3.16667,499.5 2.83333,499.5 2.5,499.5C 2.16667,498.167 1.83333,498.167 1.5,499.5C 0.833333,499.5 0.166667,499.5 -0.5,499.5C -0.5,492.5 -0.5,485.5 -0.5,478.5 Z"/></g>
<g><path style="opacity:0.004" fill="#fefffe" d="M 4.5,485.5 C 5.59832,486.601 5.76498,487.934 5,489.5C 4.50999,488.207 4.34332,486.873 4.5,485.5 Z"/></g>
</svg>
